DreamWorks' hilarious CGI animated match-up pits Monsters Vs. Aliens in a family-friendly battle of killer lines, slapstick action and sci-fi tomfoolery. Featuring the voice talent of Seth Rogen, Reese Witherspoon and Paul Rudd, prepare to laugh your way right through this cracking film.

A light-hearted comedy akin to Bee Movie or Madagascar, Monsters Vs. Aliens sees sweet Susan Murphy (Reese Witherspoon - Legally Blonde) hit by a meteorite containing a powerful substance called quantonium. The intergalactic fossil fuel turns Susan into a 50-foot tall giant and she is soon captured by the government and locked up with some other top secret monsters. When Aliens attack, it's this rabble of giants, freaks and insane geniuses who must save the world from the dastardly Gallaxhar (Rainn Wilson - Transformers 2: Revenge Of The Fallen).

Format : MPEG-4
Format profile : Base Media / Version 2
Codec ID : mp42
File size : 900 MiB
Duration : 1h 30mn
Overall bit rate : 1 390 Kbps
Encoded date : UTC 2010-02-17 11:31:26
Tagged date : UTC 2010-02-17 15:14:53
Writing application : HandBrake 0.9.3 2008112300

Video
ID : 1
Format : AVC
Format/Info : Advanced Video Codec
Format profile : Main@L4.0
Format settings, CABAC : Yes
Format settings, ReFrames : 3 frames
Codec ID : avc1
Codec ID/Info : Advanced Video Coding
Duration : 1h 30mn
Bit rate mode : Variable
Bit rate : 1 227 Kbps
Width : 716 pixels
Height : 436 pixels
Display aspect ratio : 2.35:1
Frame rate mode : Variable
Frame rate : 25.000 fps
Minimum frame rate : 12.500 fps
Maximum frame rate : 25.000 fps
Resolution : 8 bits
Colorimetry : 4:2:0
Scan type : Progressive
Bits/(Pixel*Frame) : 0.157
Stream size : 794 MiB (88%)
Writing library : x264 core 65

Language : English

Encoded date : UTC 2010-02-17 11:31:26
Tagged date : UTC 2010-02-17 15:14:53
Color primaries : BT.601-6 525, BT.1358 525, BT.1700 NTSC, SMPTE 170M
Transfer characteristics : BT.709-5, BT.1361
Matrix coefficients : BT.601-6 525, BT.1358 525, BT.1700 NTSC, SMPTE 170M

Audio
ID : 2
Format : AAC
Format/Info : Advanced Audio Codec
Format version : Version 4
Format profile : LC
Format settings, SBR : No
Codec ID : 40
Duration : 1h 30mn
Bit rate mode : Variable
Bit rate : 160 Kbps
Maximum bit rate : 256 Kbps
Channel(s) : 2 channels
Channel positions : L R
Sampling rate : 48.0 KHz
Stream size : 103 MiB (11%)
Language : English
Encoded date : UTC 2010-02-17 11:31:26
Tagged date : UTC 2010-02-17 15:14:49